<mxfile host="app.diagrams.net" modified="2021-06-03T07:22:18.665Z" agent="5.0 (Macintosh; Intel Mac OS X 10_15_5) AppleWebKit/537.36 (KHTML, like Gecko) Chrome/91.0.4472.77 Safari/537.36" etag="SqGc_U1OMU6FQPGdv_SN" version="14.7.0" type="github">
  <diagram id="viAL2-5dLFXEBhLip2Gy" name="第 1 页">
    <mxGraphModel dx="946" dy="590" grid="1" gridSize="10" guides="1" tooltips="1" connect="1" arrows="1" fold="1" page="1" pageScale="1" pageWidth="827" pageHeight="1169" math="0" shadow="0">
      <root>
        <mxCell id="0" />
        <mxCell id="1" parent="0" />
        <mxCell id="Bczts5irdM7Vs1aImiYU-5" value="" style="edgeStyle=orthogonalEdgeStyle;rounded=0;orthogonalLoop=1;jettySize=auto;html=1;" edge="1" parent="1" source="Bczts5irdM7Vs1aImiYU-1" target="Bczts5irdM7Vs1aImiYU-4">
          <mxGeometry relative="1" as="geometry" />
        </mxCell>
        <mxCell id="Bczts5irdM7Vs1aImiYU-6" value="②app拉起" style="edgeLabel;html=1;align=center;verticalAlign=middle;resizable=0;points=[];" vertex="1" connectable="0" parent="Bczts5irdM7Vs1aImiYU-5">
          <mxGeometry x="-0.525" y="-1" relative="1" as="geometry">
            <mxPoint x="1" y="21" as="offset" />
          </mxGeometry>
        </mxCell>
        <mxCell id="Bczts5irdM7Vs1aImiYU-1" value="APP下单" style="rounded=0;whiteSpace=wrap;html=1;" vertex="1" parent="1">
          <mxGeometry x="320" y="120" width="120" height="60" as="geometry" />
        </mxCell>
        <mxCell id="Bczts5irdM7Vs1aImiYU-3" value="①用户下单" style="edgeStyle=orthogonalEdgeStyle;rounded=0;orthogonalLoop=1;jettySize=auto;html=1;" edge="1" parent="1" source="Bczts5irdM7Vs1aImiYU-2" target="Bczts5irdM7Vs1aImiYU-1">
          <mxGeometry relative="1" as="geometry" />
        </mxCell>
        <mxCell id="Bczts5irdM7Vs1aImiYU-17" value="①" style="edgeLabel;html=1;align=center;verticalAlign=middle;resizable=0;points=[];" connectable="0" vertex="1" parent="Bczts5irdM7Vs1aImiYU-3">
          <mxGeometry y="2" relative="1" as="geometry">
            <mxPoint as="offset" />
          </mxGeometry>
        </mxCell>
        <mxCell id="Bczts5irdM7Vs1aImiYU-2" value="Actor" style="shape=umlActor;verticalLabelPosition=bottom;verticalAlign=top;html=1;outlineConnect=0;" vertex="1" parent="1">
          <mxGeometry x="180" y="120" width="30" height="60" as="geometry" />
        </mxCell>
        <mxCell id="Bczts5irdM7Vs1aImiYU-8" value="" style="edgeStyle=orthogonalEdgeStyle;rounded=0;orthogonalLoop=1;jettySize=auto;html=1;" edge="1" parent="1" source="Bczts5irdM7Vs1aImiYU-4" target="Bczts5irdM7Vs1aImiYU-7">
          <mxGeometry relative="1" as="geometry" />
        </mxCell>
        <mxCell id="Bczts5irdM7Vs1aImiYU-18" value="③传递业务支付参数" style="edgeLabel;html=1;align=center;verticalAlign=middle;resizable=0;points=[];" vertex="1" connectable="0" parent="Bczts5irdM7Vs1aImiYU-8">
          <mxGeometry x="-0.1778" y="1" relative="1" as="geometry">
            <mxPoint x="-1" y="13" as="offset" />
          </mxGeometry>
        </mxCell>
        <mxCell id="Bczts5irdM7Vs1aImiYU-4" value="小程序" style="whiteSpace=wrap;html=1;rounded=0;" vertex="1" parent="1">
          <mxGeometry x="320" y="270" width="120" height="60" as="geometry" />
        </mxCell>
        <mxCell id="Bczts5irdM7Vs1aImiYU-10" value="" style="edgeStyle=orthogonalEdgeStyle;rounded=0;orthogonalLoop=1;jettySize=auto;html=1;" edge="1" parent="1" source="Bczts5irdM7Vs1aImiYU-7" target="Bczts5irdM7Vs1aImiYU-9">
          <mxGeometry relative="1" as="geometry" />
        </mxCell>
        <mxCell id="Bczts5irdM7Vs1aImiYU-11" value="④&lt;br&gt;这块需要传递易宝给&lt;br&gt;易宝订单的业务参数" style="edgeLabel;html=1;align=center;verticalAlign=middle;resizable=0;points=[];" vertex="1" connectable="0" parent="Bczts5irdM7Vs1aImiYU-10">
          <mxGeometry x="-0.4571" y="-1" relative="1" as="geometry">
            <mxPoint x="1" y="22" as="offset" />
          </mxGeometry>
        </mxCell>
        <mxCell id="Bczts5irdM7Vs1aImiYU-14" value="⑥&lt;br&gt;返回给小程序微信官方参数" style="edgeStyle=orthogonalEdgeStyle;rounded=0;orthogonalLoop=1;jettySize=auto;html=1;exitX=1;exitY=0.25;exitDx=0;exitDy=0;entryX=1;entryY=0.5;entryDx=0;entryDy=0;" edge="1" parent="1" source="Bczts5irdM7Vs1aImiYU-7" target="Bczts5irdM7Vs1aImiYU-4">
          <mxGeometry relative="1" as="geometry">
            <Array as="points">
              <mxPoint x="610" y="435" />
              <mxPoint x="610" y="300" />
            </Array>
          </mxGeometry>
        </mxCell>
        <mxCell id="Bczts5irdM7Vs1aImiYU-7" value="自己的服务端" style="whiteSpace=wrap;html=1;rounded=0;" vertex="1" parent="1">
          <mxGeometry x="320" y="420" width="120" height="60" as="geometry" />
        </mxCell>
        <mxCell id="Bczts5irdM7Vs1aImiYU-12" style="edgeStyle=orthogonalEdgeStyle;rounded=0;orthogonalLoop=1;jettySize=auto;html=1;exitX=1;exitY=0.5;exitDx=0;exitDy=0;entryX=1;entryY=0.5;entryDx=0;entryDy=0;" edge="1" parent="1" source="Bczts5irdM7Vs1aImiYU-9" target="Bczts5irdM7Vs1aImiYU-7">
          <mxGeometry relative="1" as="geometry">
            <mxPoint x="460" y="450" as="targetPoint" />
            <Array as="points">
              <mxPoint x="630" y="650" />
              <mxPoint x="630" y="450" />
            </Array>
          </mxGeometry>
        </mxCell>
        <mxCell id="Bczts5irdM7Vs1aImiYU-13" value="⑤&lt;br&gt;易宝返回小程序拉起&lt;br&gt;微信支付的必须参数" style="edgeLabel;html=1;align=center;verticalAlign=middle;resizable=0;points=[];" vertex="1" connectable="0" parent="Bczts5irdM7Vs1aImiYU-12">
          <mxGeometry x="0.0345" y="2" relative="1" as="geometry">
            <mxPoint as="offset" />
          </mxGeometry>
        </mxCell>
        <mxCell id="Bczts5irdM7Vs1aImiYU-9" value="易宝的服务端" style="whiteSpace=wrap;html=1;rounded=0;" vertex="1" parent="1">
          <mxGeometry x="320" y="620" width="120" height="60" as="geometry" />
        </mxCell>
        <mxCell id="Bczts5irdM7Vs1aImiYU-15" style="edgeStyle=orthogonalEdgeStyle;rounded=0;orthogonalLoop=1;jettySize=auto;html=1;exitX=0;exitY=0.75;exitDx=0;exitDy=0;entryX=0.25;entryY=1;entryDx=0;entryDy=0;" edge="1" parent="1" source="Bczts5irdM7Vs1aImiYU-4" target="Bczts5irdM7Vs1aImiYU-4">
          <mxGeometry relative="1" as="geometry">
            <Array as="points">
              <mxPoint x="320" y="290" />
              <mxPoint x="190" y="290" />
              <mxPoint x="190" y="370" />
              <mxPoint x="350" y="370" />
            </Array>
          </mxGeometry>
        </mxCell>
        <mxCell id="Bczts5irdM7Vs1aImiYU-16" value="⑦&lt;br&gt;小程序接收到易宝微信&lt;br&gt;官方参数后, 拉起微信支付" style="edgeLabel;html=1;align=center;verticalAlign=middle;resizable=0;points=[];" vertex="1" connectable="0" parent="Bczts5irdM7Vs1aImiYU-15">
          <mxGeometry x="-0.2" y="1" relative="1" as="geometry">
            <mxPoint x="4" y="21" as="offset" />
          </mxGeometry>
        </mxCell>
      </root>
    </mxGraphModel>
  </diagram>
</mxfile>
